<svg width="603" height="380" viewBox="0 0 603 380" fill="none" xmlns="http://www.w3.org/2000/svg">
<path d="M98.3575 368.748C83.6363 373.056 78.5379 359.996 71.8765 353.388C65.4704 345.851 59.0668 338.318 52.6829 330.768C50.8165 328.571 48.6996 326.397 47.4015 323.895C44.1727 316.381 59.8064 309.954 63.3072 317.434C63.2652 317.353 63.2235 317.272 63.1816 317.191C63.1689 317.174 63.1562 317.158 63.0482 316.929C73.8096 329.943 84.6368 342.948 95.9674 355.609C107.409 347.616 137.096 293.249 151.865 301.973C155.271 303.934 155.359 308.08 152.34 311.212C142.072 321.202 132.766 331.611 125.119 342.803C117.62 351.881 111.459 363.961 98.3575 368.748Z" fill="white"/>
<path d="M92.8353 354.499C87.5475 354.643 84.5048 350.347 85.4886 347.414C86.313 337.789 88.3884 327.954 90.157 318.174C99.5315 273.979 117.794 226.804 154.824 182.804C178.967 155.156 213.326 130.92 250.064 109.762C287.783 83.776 344.67 67.5786 375.377 86.6509C401.959 69.4095 433.838 58.0401 464.777 56.8497C495.296 54.2536 523.678 57.6233 543.314 69.0261C550.069 74.6271 573.8 77.3217 561.71 89.0594C557.112 92.9664 549.425 94.6625 544.951 92.6873C528.654 85.6771 515.505 75.3137 494.3 73.0147C459.476 69.8144 420.057 74.4404 386.792 97.3865C399.472 117.366 409.273 144.734 381.078 170.781C358.806 190.077 324.747 208.946 292.954 209.598C247.156 210.771 259.458 172.927 281.911 148.765C298.008 127.711 329.491 115.039 354.621 98.9899C317.645 81.7192 268.94 115.393 233.202 137.808C186.903 166.907 156.311 203.769 139.62 240.45C123.21 272.301 114.405 303.981 110.143 334.824C119.505 338.952 105.235 355.268 92.8353 354.499ZM325.205 187.976C381.776 163.331 383.166 137.913 365.991 109.754C347.854 121.998 324.981 130.79 309.372 144.639C283.875 167.981 266.126 209.109 325.205 187.976Z" fill="white"/>
</svg>
