<svg width="1162" height="746" viewBox="0 0 1162 746" fill="none" xmlns="http://www.w3.org/2000/svg">
<path d="M1060.22 564.946C1061.24 560.699 1065.8 558.16 1070.02 559.239C1085.05 561.748 1100.12 566.757 1115.44 565.928C1110.07 551.022 1104.11 536.449 1097.77 521.91C1087.32 511.143 1107 499.972 1111.99 514.125C1117.84 528.553 1124.39 542.565 1129.3 557.352C1134.78 566.882 1131.4 579.946 1119.47 581.503C1107 583.744 1094.25 580.159 1081.96 577.953C1074.13 575.547 1058.12 577.1 1060.22 564.946Z" fill="black"/>
<path d="M1099.77 555.459C1083.83 568.432 1051.25 517.841 1040.54 508.744C990.29 446.122 937.451 384.73 876.648 329.541C796.62 264.151 610.39 172.474 498.072 222.792C535.568 250.953 620.819 384.278 580.878 423.066C558.512 444.318 522.812 434.016 500.099 420.809C432.032 382.717 380.811 273.277 461.652 220.578C347.658 145.232 189.379 134.564 49.3675 163.62C34.9188 163.97 9.42034 179.944 2.31979 163.943C1.21987 158.85 5.22879 153.983 10.9987 152.706C169.116 113.792 352.958 120.51 481.096 209.578C603.627 149.086 788.05 238.516 880.491 306.265C944.329 360.65 998.458 423.316 1049.61 486.919C1065.29 506.314 1082.2 524.931 1100.88 542.195C1104.83 545.815 1104.17 552 1099.77 555.459ZM570.24 390.074C555.301 332.288 527.402 274.148 478.281 232.798C417.158 267.517 445.288 337.672 478.069 377.992C494.364 400.259 573.002 445.598 570.24 390.074Z" fill="black"/>
</svg>
