<svg width="516" height="72" viewBox="0 0 516 72" fill="none" xmlns="http://www.w3.org/2000/svg">
<path d="M335.87 71.9208C308.232 71.4372 289.053 41.6712 265.423 27.08C221.212 -1.06868 179.95 85.4822 125.602 65.4577C111.745 61.5294 103.28 45.8151 92.7229 34.7854C77.6987 20.8093 31.4005 47.0547 14.0797 54.5715C9.90041 56.1159 6.93597 63.5913 2.32345 59.168C-0.030749 56.9346 -0.822604 52.0873 1.01232 48.9196C6.91652 39.7816 16.8525 38.4098 24.7801 33.7824C38.9169 27.012 53.4313 21.6188 68.1523 17.6747C113.686 3.2778 104.526 68.5529 157.776 50.7313C178.105 44.1929 195.706 28.7572 214.433 17.0013C232.702 5.12887 254.551 2.02476 272.829 15.5067C288.03 25.0236 300.418 40.9329 315.63 50.392C341.822 67.7003 364.041 49.0424 386.102 30.4167C415.043 4.28321 438.051 -8.86616 472.974 6.65159C485.355 11.8413 498.047 15.5896 511.039 16.4042C514.019 16.6555 516.25 20.519 515.977 24.4192C514.192 36.021 502.807 29.0949 496.768 29.2887C471.951 24.3419 446.763 5.6517 421.775 20.2223C393.116 36.2039 368.678 73.1693 335.87 71.9208Z" fill="white"/>
</svg>
